<svg shape-rendering="crispEdges" width="82" height="85" viewBox="0 0 82 85" fill="none" xmlns="http://www.w3.org/2000/svg">
<rect x="1.5" y="1.5" width="78.4801" height="81.1342" rx="14.5" fill="#F7CB45" stroke="black" stroke-width="3"/>
<path fill-rule="evenodd" clip-rule="evenodd" d="M28.5 41.5C28.5 39.6099 28.5997 37.7703 28.7882 36H53.2118C53.4003 37.7703 53.5 39.6099 53.5 41.5C53.5 43.0367 53.4341 44.5401 53.3081 46H28.6919C28.5659 44.5401 28.5 43.0367 28.5 41.5ZM25.5 41.5C25.5 39.6223 25.5933 37.7833 25.7723 36H14.5715C14.197 37.7744 14 39.6142 14 41.5C14 43.0339 14.1303 44.5374 14.3805 46H25.6814C25.5619 44.5318 25.5 43.0287 25.5 41.5ZM15.0762 49C17.6704 57.8078 24.7172 64.7081 33.6115 67.0959C32.1341 65.6197 30.8414 63.7428 29.7638 61.626C27.9877 58.1372 26.6833 53.807 26.012 49H15.0762ZM48.7934 66.6764C57.0207 63.9677 63.4677 57.3388 65.9238 49H55.988C55.3167 53.807 54.0123 58.1372 52.2362 61.626C51.2582 63.5471 50.103 65.2707 48.7934 66.6764ZM66.6195 46C66.8697 44.5374 67 43.0339 67 41.5C67 39.6142 66.803 37.7744 66.4285 36H56.2277C56.4067 37.7833 56.5 39.6223 56.5 41.5C56.5 43.0287 56.4381 44.5318 56.3186 46H66.6195ZM65.6074 33C62.945 25.1331 56.6891 18.9231 48.7934 16.3236C50.103 17.7293 51.2582 19.4529 52.2362 21.374C53.8883 24.6191 55.1322 28.5923 55.8381 33H65.6074ZM33.6115 15.9041C25.0567 18.2007 18.211 24.672 15.3926 33H26.1619C26.8678 28.5923 28.1117 24.6191 29.7638 21.374C30.8414 19.2572 32.1341 17.3803 33.6115 15.9041ZM49.5628 22.7351C50.9993 25.5569 52.1242 29.0588 52.7974 33H29.2026C29.8758 29.0588 31.0007 25.5569 32.4373 22.7351C34.8846 17.9279 37.9941 15.5 41 15.5C44.0059 15.5 47.1154 17.9279 49.5628 22.7351ZM32.4373 60.2649C30.8803 57.2066 29.6894 53.3494 29.0429 49H52.9571C52.3106 53.3494 51.1197 57.2066 49.5628 60.2649C47.1154 65.0721 44.0059 67.5 41 67.5C37.9941 67.5 34.8846 65.0721 32.4373 60.2649Z" fill="black"/>
</svg>
