<svg shape-rendering="crispEdges" width="82" height="85" viewBox="0 0 82 85" fill="none" xmlns="http://www.w3.org/2000/svg">
<rect x="1.5" y="1.5" width="78.4801" height="81.1342" rx="14.5" fill="#91A8ED" stroke="black" stroke-width="3"/>
<path d="M29.65 61.9333C29.65 60.2397 31.0379 58.8667 32.75 58.8667H48.25C49.9621 58.8667 51.35 60.2397 51.35 61.9333C51.35 63.627 49.9621 65 48.25 65H32.75C31.0379 65 29.65 63.627 29.65 61.9333Z" fill="white"/>
<path d="M56 34.3333C56 42.8017 49.0604 49.6667 40.5 49.6667C31.9396 49.6667 25 42.8017 25 34.3333C25 25.865 31.9396 19 40.5 19C49.0604 19 56 25.865 56 34.3333Z" fill="white"/>
<path d="M29.65 45.0667C29.65 43.373 31.0379 42 32.75 42H48.25C49.9621 42 51.35 43.373 51.35 45.0667V49.6667C51.35 51.3603 49.9621 52.7333 48.25 52.7333H32.75C31.0379 52.7333 29.65 51.3603 29.65 49.6667V45.0667Z" fill="white"/>
</svg>
