<svg shape-rendering="crispEdges" width="503" height="371" viewBox="0 0 503 371" fill="none" xmlns="http://www.w3.org/2000/svg">
<g filter="url(#filter0_d_65_15)">
<path d="M87.3068 15.3602C96.3899 5.56614 109.143 0 122.501 0H442C468.51 0 490 21.4903 490 48V310C490 336.51 468.51 358 442 358H48C21.4903 358 0 336.51 0 310V128.332C0 116.226 4.57397 104.568 12.8056 95.6921L87.3068 15.3602Z" fill="#91A8ED"/>
<path d="M486 48V310C486 334.301 466.301 354 442 354H48C23.6995 354 4 334.301 4 310V128.332C4 117.235 8.1928 106.548 15.7385 98.4121L90.2396 18.0802C98.5659 9.10229 110.257 4 122.501 4H442C466.301 4 486 23.6995 486 48Z" stroke="black" stroke-width="8"/>
</g>
<defs>
<filter id="filter0_d_65_15" x="0" y="0" width="503" height="371" filterUnits="userSpaceOnUse" color-interpolation-filters="sRGB">
<feFlood flood-opacity="0" result="BackgroundImageFix"/>
<feColorMatrix in="SourceAlpha" type="matrix" values="0 0 0 0 0 0 0 0 0 0 0 0 0 0 0 0 0 0 127 0" result="hardAlpha"/>
<feOffset dx="13" dy="13"/>
<feComposite in2="hardAlpha" operator="out"/>
<feColorMatrix type="matrix" values="0 0 0 0 0 0 0 0 0 0 0 0 0 0 0 0 0 0 1 0"/>
<feBlend mode="normal" in2="BackgroundImageFix" result="effect1_dropShadow_65_15"/>
<feBlend mode="normal" in="SourceGraphic" in2="effect1_dropShadow_65_15" result="shape"/>
</filter>
</defs>
</svg>
